<svg width="17" height="22" viewBox="0 0 17 22" fill="none" xmlns="http://www.w3.org/2000/svg">
<path d="M13.8079 10.902C13.8079 16.432 12.5527 21.172 9.20531 21.804C8.92636 21.804 7.25265 21.804 6.83423 21.804C3.06842 21.804 0 16.906 0 10.902C0 4.898 3.06843 0 6.97371 0C7.11318 0 9.20532 0 9.48427 0C12.9711 0.632 13.8079 5.214 13.8079 10.902Z" fill="url(#paint0_radial_1_12133)"/>
<path d="M16.4572 10.902C16.4572 16.906 13.3888 21.804 9.48348 21.804C5.5782 21.804 2.50977 16.906 2.50977 10.902C2.50977 4.898 5.71767 0 9.48348 0C13.3888 0 16.4572 4.898 16.4572 10.902Z" fill="url(#paint1_linear_1_12133)"/>
<path style="mix-blend-mode:screen" d="M3.48633 5.37184L13.5285 19.7498L15.0627 17.3798L7.11267 0.631836C7.11267 0.631836 5.16002 1.57984 3.48633 5.37184Z" fill="url(#paint2_linear_1_12133)"/>
<path d="M14.3667 10.9022C14.3667 15.1682 12.1351 18.6442 9.48511 18.6442C9.39213 18.6442 9.29913 18.5915 9.20615 18.4862C6.55614 18.3282 4.60352 15.0102 4.60352 10.9022C4.60352 6.79416 6.55614 3.47616 9.20615 3.16016C9.29913 3.16016 9.39213 3.16016 9.48511 3.16016C12.2746 3.16016 14.3667 6.63616 14.3667 10.9022Z" fill="url(#paint3_radial_1_12133)"/>
<path d="M13.8088 10.9022C13.8088 15.0102 11.7167 18.3282 9.20615 18.4862C6.55614 18.3282 4.60352 15.0102 4.60352 10.9022C4.60352 6.79416 6.55614 3.47616 9.20615 3.16016C11.7167 3.47616 13.8088 6.79416 13.8088 10.9022Z" fill="url(#paint4_linear_1_12133)"/>
<path d="M15.4828 10.2705C15.9013 10.2705 16.1802 10.7445 16.1802 11.2185C16.1802 11.6925 15.9013 12.0085 15.4828 12.0085C15.0644 12.0085 14.7855 11.6925 14.925 11.2185C14.925 10.5865 15.2039 10.2705 15.4828 10.2705Z" fill="url(#paint5_radial_1_12133)"/>
<path d="M15.4817 10.4287C15.7607 10.4287 16.0396 10.7447 16.0396 11.2187C16.0396 11.5347 15.7606 11.8507 15.3422 11.8507C15.0633 11.8507 14.7843 11.5347 14.9238 11.2187C14.9238 10.7447 15.0633 10.4287 15.4817 10.4287Z" fill="url(#paint6_linear_1_12133)"/>
<path d="M9.90245 1.10645C10.1814 1.10645 10.4603 1.58045 10.4603 2.05445C10.4603 2.52845 10.1814 2.84445 9.76297 2.84445C9.48402 2.84445 9.20508 2.37045 9.20508 1.89645C9.20508 1.42245 9.48403 1.10645 9.90245 1.10645Z" fill="url(#paint7_radial_1_12133)"/>
<path d="M9.76297 1.26456C10.0419 1.26456 10.3209 1.58056 10.3209 2.05456C10.3209 2.37056 10.0419 2.68656 9.76297 2.68656C9.48402 2.68656 9.20508 2.37056 9.20508 1.89656C9.20508 1.58056 9.48402 1.26456 9.76297 1.26456Z" fill="url(#paint8_linear_1_12133)"/>
<path d="M9.90245 19.2764C10.1814 19.2764 10.4603 19.7504 10.4603 20.2244C10.4603 20.6984 10.1814 21.0144 9.76297 21.0144C9.48402 21.0144 9.20508 20.5404 9.20508 20.0664C9.20508 19.5924 9.48403 19.2764 9.90245 19.2764Z" fill="url(#paint9_radial_1_12133)"/>
<path d="M9.76297 19.4346C10.0419 19.4346 10.3209 19.7506 10.3209 20.2246C10.3209 20.5406 10.0419 20.8566 9.76297 20.8566C9.34454 20.8566 9.20508 20.5406 9.20508 20.0666C9.20508 19.7506 9.48402 19.4346 9.76297 19.4346Z" fill="url(#paint10_linear_1_12133)"/>
<path d="M3.62706 10.2705C4.04548 10.2705 4.32442 10.7445 4.18495 11.2185C4.18495 11.6925 3.90601 12.0085 3.62706 12.0085C3.20864 12.0085 2.92969 11.5345 2.92969 11.0605C2.92969 10.5865 3.20864 10.2705 3.62706 10.2705Z" fill="url(#paint11_radial_1_12133)"/>
<path d="M3.48758 10.4287C3.76652 10.4287 4.04546 10.7447 4.04546 11.2187C4.04546 11.5347 3.76652 11.8507 3.48758 11.8507C3.20863 11.8507 2.92969 11.5347 2.92969 11.0607C2.92969 10.7447 3.20863 10.4287 3.48758 10.4287Z" fill="url(#paint12_linear_1_12133)"/>
<path style="mix-blend-mode:screen" d="M0.976562 5.21384L3.48708 5.37184C3.48708 5.37184 4.18445 2.84384 6.97394 0.631836L4.32394 0.789835C4.32394 0.789835 1.67393 2.68584 0.976562 5.21384Z" fill="url(#paint13_linear_1_12133)"/>
<path d="M3.90555 4.42394C3.76608 4.58194 5.71868 3.47593 6.13711 2.68593C6.41605 1.73793 6.69503 1.10593 6.55555 1.10593C6.41608 0.947935 4.60292 2.84394 3.90555 4.42394Z" fill="white"/>
<path d="M13.39 19.5925C12.6926 19.7505 14.3663 17.8545 14.5058 17.8545C14.7847 18.0125 14.0874 19.4345 13.39 19.5925Z" fill="white"/>
<defs>
<radialGradient id="paint0_radial_1_12133" cx="0" cy="0" r="1" gradientUnits="userSpaceOnUse" gradientTransform="translate(6.90536 10.8941) rotate(0.0862254) scale(8.39914 9.51477)">
<stop stop-color="#FFBD00"/>
<stop offset="1" stop-color="#FF772C"/>
</radialGradient>
<linearGradient id="paint1_linear_1_12133" x1="-3.78052" y1="21.7566" x2="-3.7484" y2="-0.00789074" gradientUnits="userSpaceOnUse">
<stop stop-color="#FFCC00"/>
<stop offset="1" stop-color="#FFBD00"/>
</linearGradient>
<linearGradient id="paint2_linear_1_12133" x1="3.50307" y1="0.628676" x2="15.0753" y2="0.642244" gradientUnits="userSpaceOnUse">
<stop stop-color="#FF9840"/>
<stop offset="1"/>
</linearGradient>
<radialGradient id="paint3_radial_1_12133" cx="0" cy="0" r="1" gradientUnits="userSpaceOnUse" gradientTransform="translate(9.49209 10.8943) rotate(0.0917833) scale(5.9179 6.70394)">
<stop stop-color="#FFBD00"/>
<stop offset="1" stop-color="#FF772C"/>
</radialGradient>
<linearGradient id="paint4_linear_1_12133" x1="-0.784354" y1="18.5399" x2="-0.760644" y2="3.22178" gradientUnits="userSpaceOnUse">
<stop stop-color="#FFCC00"/>
<stop offset="1" stop-color="#FF9700"/>
</linearGradient>
<radialGradient id="paint5_radial_1_12133" cx="0" cy="0" r="1" gradientUnits="userSpaceOnUse" gradientTransform="translate(15.5177 11.1664) rotate(-88.269) scale(0.877299 0.774631)">
<stop stop-color="#FFBD00"/>
<stop offset="1" stop-color="#FF772C"/>
</radialGradient>
<linearGradient id="paint6_linear_1_12133" x1="14.8332" y1="11.9471" x2="14.8353" y2="10.3908" gradientUnits="userSpaceOnUse">
<stop stop-color="#00FFF4"/>
<stop offset="1" stop-color="#30A7FB"/>
</linearGradient>
<radialGradient id="paint7_radial_1_12133" cx="0" cy="0" r="1" gradientUnits="userSpaceOnUse" gradientTransform="translate(9.84666 1.98177) rotate(-88.269) scale(0.877301 0.77463)">
<stop stop-color="#FFBD00"/>
<stop offset="1" stop-color="#FF772C"/>
</radialGradient>
<linearGradient id="paint8_linear_1_12133" x1="9.16324" y1="2.76398" x2="9.16533" y2="1.20768" gradientUnits="userSpaceOnUse">
<stop stop-color="#00FFF4"/>
<stop offset="1" stop-color="#30A7FB"/>
</linearGradient>
<radialGradient id="paint9_radial_1_12133" cx="0" cy="0" r="1" gradientUnits="userSpaceOnUse" gradientTransform="translate(9.82713 20.1438) rotate(-88.269) scale(0.877301 0.77463)">
<stop stop-color="#FFBD00"/>
<stop offset="1" stop-color="#FF772C"/>
</radialGradient>
<linearGradient id="paint10_linear_1_12133" x1="9.14232" y1="20.9245" x2="9.14441" y2="19.3682" gradientUnits="userSpaceOnUse">
<stop stop-color="#00FFF4"/>
<stop offset="1" stop-color="#30A7FB"/>
</linearGradient>
<radialGradient id="paint11_radial_1_12133" cx="0" cy="0" r="1" gradientUnits="userSpaceOnUse" gradientTransform="translate(3.5894 11.149) rotate(-88.269) scale(0.877299 0.774631)">
<stop stop-color="#FFBD00"/>
<stop offset="1" stop-color="#FF772C"/>
</radialGradient>
<linearGradient id="paint12_linear_1_12133" x1="2.90458" y1="11.9297" x2="2.90668" y2="10.3734" gradientUnits="userSpaceOnUse">
<stop stop-color="#00FFF4"/>
<stop offset="1" stop-color="#30A7FB"/>
</linearGradient>
<linearGradient id="paint13_linear_1_12133" x1="0.952852" y1="0.625516" x2="6.91676" y2="0.632649" gradientUnits="userSpaceOnUse">
<stop stop-color="#FF9840"/>
<stop offset="1"/>
</linearGradient>
</defs>
</svg>
