<svg width="16" height="22" viewBox="0 0 16 22" fill="none" xmlns="http://www.w3.org/2000/svg">
<path d="M2 21.1385C1.45 21.1385 0.979333 20.9428 0.588 20.5515C0.196666 20.1601 0.000666667 19.6891 0 19.1385V9.13846C0 8.58846 0.196 8.11779 0.588 7.72646C0.98 7.33513 1.45067 7.13913 2 7.13846H3V5.13846C3 3.75513 3.48767 2.57613 4.463 1.60146C5.43833 0.626792 6.61733 0.139126 8 0.138459C9.38267 0.137792 10.562 0.625459 11.538 1.60146C12.514 2.57746 13.0013 3.75646 13 5.13846V7.13846H14C14.55 7.13846 15.021 7.33446 15.413 7.72646C15.805 8.11846 16.0007 8.58913 16 9.13846V19.1385C16 19.6885 15.8043 20.1595 15.413 20.5515C15.0217 20.9435 14.5507 21.1391 14 21.1385H2ZM8 16.1385C8.55 16.1385 9.021 15.9428 9.413 15.5515C9.805 15.1601 10.0007 14.6891 10 14.1385C9.99933 13.5878 9.80367 13.1171 9.413 12.7265C9.02233 12.3358 8.55133 12.1398 8 12.1385C7.44867 12.1371 6.978 12.3331 6.588 12.7265C6.198 13.1198 6.002 13.5905 6 14.1385C5.998 14.6865 6.194 15.1575 6.588 15.5515C6.982 15.9455 7.45267 16.1411 8 16.1385ZM5 7.13846H11V5.13846C11 4.30513 10.7083 3.59679 10.125 3.01346C9.54167 2.43013 8.83333 2.13846 8 2.13846C7.16667 2.13846 6.45833 2.43013 5.875 3.01346C5.29167 3.59679 5 4.30513 5 5.13846V7.13846Z" fill="#10011C"/>
</svg>
